<svg xmlns="http://www.w3.org/2000/svg" width="32" height="32" viewBox="0 0 1684 2084" fill-rule="evenodd" clip-rule="evenodd" stroke-linejoin="round" stroke-miterlimit="2">
  <g transform="translate(-3394.23 -6217.19)">
    <g transform="matrix(4.16667 0 0 4.16667 2257.92 1010.42)">
      <path fill="#989898" d="M272.715,1257.42C272.711,1254.26 277.32,1249.96 277.32,1249.96L430.578,1555.9C430.578,1555.9 428.371,1557.33 427.574,1558.41C411.594,1579.93 323.688,1698.35 288.043,1746.36C285.902,1749.25 282.148,1750.44 278.734,1749.31C275.316,1748.18 273.012,1744.99 273.008,1741.39C272.953,1649.49 272.758,1333.7 272.715,1257.42"/>
    </g>
    <g transform="matrix(4.16667 0 0 4.16667 2257.92 1010.42)">
      <path fill="#bfbfbf" d="M286.074,1250.73C283.547,1248.84 277.344,1249.95 277.344,1249.95L430.516,1555.93C430.516,1555.93 432.98,1555.03 434.324,1555.03C461.129,1555.13 608.602,1555.67 668.402,1555.89C671.996,1555.91 675.195,1553.61 676.34,1550.2C677.48,1546.79 676.309,1543.03 673.434,1540.88C599.871,1485.78 347.121,1296.46 286.074,1250.73"/>
    </g>
  </g>
</svg>
