<svg width="65" height="64" viewBox="0 0 65 64" fill="none" xmlns="http://www.w3.org/2000/svg">
<path d="M3.2 63.6561H8.53333C9.43839 63.6533 10.2995 63.2654 10.9013 62.5895H37.6533C39.2186 62.5901 40.7538 62.1598 42.0907 61.3457L62.08 49.1772C63.0253 48.6063 63.6908 47.6684 63.9176 46.5877C64.1443 45.507 63.9118 44.3806 63.2757 43.478C63.2531 43.4409 63.2282 43.4053 63.2011 43.3713C62.1691 42.0005 60.3783 41.4397 58.7488 41.9772L51.2 44.4871V22.0561H52.5973C53.4917 22.0609 54.2941 21.5073 54.6071 20.6695C54.9202 19.8316 54.6773 18.8875 53.9989 18.3047L51.2 15.8887V3.92279C51.2 2.74459 50.2449 1.78946 49.0667 1.78946H43.7333C42.5551 1.78946 41.6 2.74459 41.6 3.92279V7.60066L33.3867 0.509461C32.587 -0.16982 31.413 -0.16982 30.6133 0.509461L9.99787 18.3079C9.32155 18.8916 9.08061 19.8349 9.39414 20.6715C9.70768 21.5081 10.5093 22.0607 11.4027 22.0561H12.8V36.9895H11.5371C11.0867 35.7155 9.88457 34.8617 8.53333 34.8561H3.2C1.43269 34.8561 0 36.2888 0 38.0561V60.4561C0 62.2234 1.43269 63.6561 3.2 63.6561ZM59.4133 43.9964C60.1452 43.7561 60.9496 43.9889 61.44 44.5831C61.4561 44.6096 61.4735 44.6352 61.4923 44.6599C61.8067 45.0779 61.9291 45.6096 61.8293 46.123C61.7295 46.6364 61.4167 47.0835 60.9685 47.3532L40.9813 59.5239C39.9785 60.1339 38.8272 60.4565 37.6533 60.4561H11.7333V39.1228H13.6533C15.6214 39.125 17.5306 39.7947 19.0688 41.0225C20.9849 42.5511 23.3623 43.3854 25.8133 43.3895H31.392C32.8794 43.3934 34.2585 44.1682 35.0357 45.4364C35.0475 45.4631 35.0603 45.4876 35.0709 45.5068C35.7411 46.4831 35.711 47.7787 34.9963 48.7228H28.5013C26.3953 48.7241 24.3365 49.3476 22.5835 50.5148L21.8048 51.0375C21.3158 51.3662 21.1859 52.029 21.5147 52.518C21.8434 53.007 22.5062 53.1369 22.9952 52.8081L23.7675 52.2897C25.1696 51.3556 26.8165 50.8568 28.5013 50.8561H37.984C38.5594 50.8569 39.1309 50.7628 39.6757 50.5777L59.4133 43.9964ZM39.4667 48.4028L38.9931 48.5607C38.6679 48.6697 38.327 48.7244 37.984 48.7228H37.4027C37.8731 47.3066 37.7042 45.7559 36.9397 44.4743C36.9228 44.4375 36.9035 44.4019 36.8821 44.3676C35.7223 42.4426 33.6415 41.2629 31.3941 41.2561H25.8133C25.3846 41.2526 24.9567 41.217 24.5333 41.1495V39.1228C24.5333 34.9991 27.8763 31.6561 32 31.6561C36.1237 31.6561 39.4667 34.9991 39.4667 39.1228V48.4028ZM43.7333 3.92279H49.0667V14.0476L43.7333 9.4428V3.92279ZM17.0667 22.0561C17.6558 22.0561 18.1333 21.5786 18.1333 20.9895C18.1333 20.4004 17.6558 19.9228 17.0667 19.9228H11.3952L32 2.12759L52.5973 19.9228H38.4C37.8109 19.9228 37.3333 20.4004 37.3333 20.9895C37.3333 21.5786 37.8109 22.0561 38.4 22.0561H49.0667V45.2028L41.6 47.6913V39.1228C41.6 33.8209 37.3019 29.5228 32 29.5228C26.6981 29.5228 22.4 33.8209 22.4 39.1228V40.5479C21.6824 40.2431 21.0096 39.8423 20.4 39.3564C18.8247 38.1037 16.9319 37.314 14.9333 37.0759V22.0561H17.0667ZM2.13333 38.0561C2.13333 37.467 2.6109 36.9895 3.2 36.9895H8.53333C9.12244 36.9895 9.6 37.467 9.6 38.0561V60.4561C9.6 61.0452 9.12244 61.5228 8.53333 61.5228H3.2C2.6109 61.5228 2.13333 61.0452 2.13333 60.4561V38.0561Z" fill="black"/>
<path d="M12.8 4.98947C13.3891 4.98947 13.8666 4.5119 13.8666 3.9228V1.78947C13.8666 1.20036 13.3891 0.722799 12.8 0.722799C12.2109 0.722799 11.7333 1.20036 11.7333 1.78947V3.9228C11.7333 4.5119 12.2109 4.98947 12.8 4.98947Z" fill="black"/>
<path d="M12.8 7.12284C12.2109 7.12284 11.7333 7.60041 11.7333 8.18951V10.3228C11.7333 10.9119 12.2109 11.3895 12.8 11.3895C13.3891 11.3895 13.8666 10.9119 13.8666 10.3228V8.18951C13.8666 7.60041 13.3891 7.12284 12.8 7.12284Z" fill="black"/>
<path d="M14.9333 7.12283H17.0667C17.6558 7.12283 18.1333 6.64527 18.1333 6.05616C18.1333 5.46706 17.6558 4.9895 17.0667 4.9895H14.9333C14.3442 4.9895 13.8667 5.46706 13.8667 6.05616C13.8667 6.64527 14.3442 7.12283 14.9333 7.12283Z" fill="black"/>
<path d="M8.53328 7.12283H10.6666C11.2557 7.12283 11.7333 6.64527 11.7333 6.05616C11.7333 5.46706 11.2557 4.9895 10.6666 4.9895H8.53328C7.94418 4.9895 7.46661 5.46706 7.46661 6.05616C7.46661 6.64527 7.94418 7.12283 8.53328 7.12283Z" fill="black"/>
<path d="M59.2 31.1228C59.4829 31.1227 59.7541 31.0103 59.9541 30.8102L61.5541 29.2102C61.9584 28.7917 61.9526 28.1264 61.5411 27.715C61.1297 27.3035 60.4644 27.2977 60.0459 27.702L58.4459 29.302C58.1409 29.607 58.0497 30.0657 58.2147 30.4643C58.3798 30.8628 58.7686 31.1227 59.2 31.1228Z" fill="black"/>
<path d="M55.2459 32.5019L53.6459 34.1019C53.3686 34.3698 53.2574 34.7663 53.355 35.1393C53.4527 35.5122 53.7439 35.8035 54.1168 35.9011C54.4898 35.9987 54.8864 35.8875 55.1542 35.6102L56.7542 34.0102C57.1584 33.5917 57.1526 32.9264 56.7412 32.5149C56.3297 32.1035 55.6645 32.0977 55.2459 32.5019Z" fill="black"/>
<path d="M60.0459 35.6102C60.4644 36.0144 61.1297 36.0087 61.5412 35.5972C61.9526 35.1858 61.9584 34.5205 61.5542 34.1019L59.9542 32.5019C59.5356 32.0977 58.8703 32.1035 58.4589 32.5149C58.0474 32.9264 58.0417 33.5917 58.4459 34.0102L60.0459 35.6102Z" fill="black"/>
<path d="M53.6459 27.702C53.2295 28.1185 53.2295 28.7937 53.6459 29.2102L55.2459 30.8102C55.6644 31.2145 56.3297 31.2087 56.7412 30.7972C57.1526 30.3858 57.1584 29.7205 56.7542 29.302L55.1542 27.702C54.7376 27.2856 54.0624 27.2856 53.6459 27.702Z" fill="black"/>
<path d="M21.3334 22.0561C24.2774 22.0596 26.6632 24.4454 26.6667 27.3894C26.6667 27.9785 27.1443 28.4561 27.7334 28.4561C28.3225 28.4561 28.8 27.9785 28.8 27.3894C28.8036 24.4454 31.1893 22.0596 34.1334 22.0561C34.7225 22.0561 35.2 21.5785 35.2 20.9894C35.2 20.4003 34.7225 19.9228 34.1334 19.9228C31.1893 19.9193 28.8036 17.5335 28.8 14.5894C28.8 14.0003 28.3225 13.5228 27.7334 13.5228C27.1443 13.5228 26.6667 14.0003 26.6667 14.5894C26.6632 17.5335 24.2774 19.9193 21.3334 19.9228C20.7443 19.9228 20.2667 20.4003 20.2667 20.9894C20.2667 21.5785 20.7443 22.0561 21.3334 22.0561ZM27.7334 18.4294C28.366 19.4781 29.2447 20.3568 30.2934 20.9894C29.2447 21.6221 28.366 22.5008 27.7334 23.5494C27.1007 22.5008 26.222 21.6221 25.1734 20.9894C26.222 20.3568 27.1007 19.4781 27.7334 18.4294Z" fill="black"/>
</svg>
