<svg width="16" height="16" viewBox="0 0 24 24" fill="none" xmlns="http://www.w3.org/2000/svg">
<path d="M22.2812 19.125V21.5612C22.2812 22.0345 21.709 22.2715 21.3743 21.9369L18.4069 18.9694C18.0722 18.6347 18.3093 18.0625 18.7826 18.0625H21.2188C21.8056 18.0625 22.2812 18.5382 22.2812 19.125Z" fill="black"/>
<path d="M12.7188 14.875V12.4388C12.7188 11.9655 13.291 11.7285 13.6257 12.0632L16.5931 15.0306C16.9278 15.3653 16.6907 15.9375 16.2174 15.9375H13.7812C13.1944 15.9375 12.7188 15.4618 12.7188 14.875Z" fill="black"/>
<path d="M7.75 4.75H6.75C5.09315 4.75 3.75 6.09315 3.75 7.75V9.25M7.75 4.75H16.25M7.75 4.75V2.75M16.25 4.75H17.25C18.9069 4.75 20.25 6.09315 20.25 7.75C20.25 8.25 20.25 8.75 20.25 9.25H3.75M16.25 4.75V2.75M10.25 20.25H6.75C5.09315 20.25 3.75 18.9069 3.75 17.25V9.25M20.3397 20.1875C19.5795 20.8488 18.5778 21.25 17.5 21.25C15.5197 21.25 13.8557 19.8956 13.3839 18.0625M14.4195 14.0388C15.2021 13.2439 16.3041 12.75 17.5 12.75C19.4803 12.75 21.1443 14.1044 21.6161 15.9375" stroke="black" stroke-width="1.59375" stroke-linecap="round" stroke-linejoin="round"/>
</svg>
