<svg width="24" height="24" viewBox="0 0 24 24" fill="none" xmlns="http://www.w3.org/2000/svg">
<path fill-rule="evenodd" clip-rule="evenodd" d="M18 2.99982L6.00004 2.99982C4.34319 2.99982 3.00004 4.34296 3.00004 5.99981L3 17.9998C2.99999 19.6567 4.34314 20.9998 6 20.9998H18C19.6569 20.9998 21 19.6567 21 17.9998V5.99982C21 4.34296 19.6569 2.99982 18 2.99982ZM6.00004 4.99982L18 4.99982C18.5523 4.99982 19 5.44753 19 5.99982V11.9998H15.874C15.4177 11.9998 15.0193 12.3087 14.9055 12.7506C14.5724 14.0447 13.3965 14.9998 12 14.9998C10.6035 14.9998 9.42754 14.0447 9.09445 12.7506C8.98072 12.3087 8.5823 11.9998 8.12601 11.9998H5.00002L5.00004 5.99982C5.00004 5.44754 5.44775 4.99982 6.00004 4.99982Z" fill="black"/>
</svg>
